<svg width="22" height="22" viewBox="0 0 22 22" fill="none" xmlns="http://www.w3.org/2000/svg">
<path d="M19.25 17.4167L14.5255 12.6922C15.3989 11.3648 15.7487 9.76053 15.5072 8.18999C15.2657 6.61945 14.4501 5.19437 13.2182 4.19068C11.9863 3.18698 10.4259 2.67606 8.83892 2.75684C7.25197 2.83762 5.75144 3.50434 4.62785 4.62794C3.50425 5.75153 2.83752 7.25206 2.75675 8.83901C2.67597 10.426 3.18689 11.9864 4.19058 13.2183C5.19428 14.4502 6.61936 15.2658 8.1899 15.5073C9.76044 15.7488 11.3647 15.399 12.6922 14.5256L17.4167 19.2501L19.25 17.4167ZM4.58332 9.16675C4.58332 6.6395 6.63941 4.58341 9.16666 4.58341C11.6939 4.58341 13.75 6.6395 13.75 9.16675C13.75 11.694 11.6939 13.7501 9.16666 13.7501C6.63941 13.7501 4.58332 11.694 4.58332 9.16675Z" fill="white"/>
</svg>
